<svg width="32" height="32" viewBox="0 0 32 32" fill="none" xmlns="http://www.w3.org/2000/svg">
<rect width="32" height="32" rx="16" fill="#90FF74"/>
<path d="M16 21.4344C13.3865 23.0803 10.88 23.5171 9.68146 22.3185C8.48293 21.12 8.91969 18.6135 10.5656 16M16 21.4344C17.0101 20.7983 18.0361 19.9816 19.0088 19.0088C19.9816 18.0361 20.7983 17.0101 21.4344 16M16 21.4344C18.6135 23.0803 21.12 23.5171 22.3185 22.3185C23.5171 21.12 23.0803 18.6135 21.4344 16M16 21.4344C14.9899 20.7983 13.9639 19.9816 12.9912 19.0088C12.0184 18.0361 11.2017 17.0101 10.5656 16M21.4344 16C23.0803 13.3865 23.5171 10.88 22.3186 9.68145C21.12 8.48292 18.6135 8.91968 16 10.5656M21.4344 16C20.7983 14.9899 19.9816 13.9639 19.0088 12.9912C18.0361 12.0184 17.0101 11.2017 16 10.5656M16 10.5656C14.9899 11.2017 13.9639 12.0184 12.9912 12.9912C12.0185 13.9639 11.2017 14.9899 10.5656 16M16 10.5656C13.3865 8.91968 10.88 8.48292 9.68145 9.68145C8.48292 10.88 8.91968 13.3865 10.5656 16M15.2222 16C15.2222 15.5704 15.5704 15.2222 16 15.2222C16.4296 15.2222 16.7778 15.5704 16.7778 16C16.7778 16.4296 16.4296 16.7778 16 16.7778C15.5704 16.7778 15.2222 16.4296 15.2222 16Z" stroke="black" stroke-width="1.5" stroke-linecap="round" stroke-linejoin="round"/>
</svg>
