<svg width="135" height="24" viewBox="0 0 135 24" fill="none" xmlns="http://www.w3.org/2000/svg">
<path d="M94.5396 0H93.5049V24H94.5396V0Z" fill="#90FF74"/>
<path d="M91.1624 0H89.181V24H91.1624V0Z" fill="#90FF74"/>
<path d="M86.7087 0H85.9381V24H86.7087V0Z" fill="#90FF74"/>
<path d="M83.1443 0H81.8014V24H83.1443V0Z" fill="#90FF74"/>
<path d="M79.9454 0H77.3036V24H79.9454V0Z" fill="#90FF74"/>
<path d="M74.9941 0H74.5538V24H74.9941V0Z" fill="#90FF74"/>
<path d="M71.5949 0H70.252V24H71.5949V0Z" fill="#90FF74"/>
<path d="M66.7647 0H64.7833V24H66.7647V0Z" fill="#90FF74"/>
<path d="M62.4408 0H61.4061V24H62.4408V0Z" fill="#90FF74"/>
<path d="M58.2953 0H57.8549V24H58.2953V0Z" fill="#90FF74"/>
<path d="M135 0H133.965V24H135V0Z" fill="#90FF74"/>
<path d="M131.623 0H129.641V24H131.623V0Z" fill="#90FF74"/>
<path d="M127.167 0H126.396V24H127.167V0Z" fill="#90FF74"/>
<path d="M123.605 0H122.262V24H123.605V0Z" fill="#90FF74"/>
<path d="M120.404 0H117.762V24H120.404V0Z" fill="#90FF74"/>
<path d="M115.455 0H115.014V24H115.455V0Z" fill="#90FF74"/>
<path d="M112.055 0H110.712V24H112.055V0Z" fill="#90FF74"/>
<path d="M107.225 0H105.244V24H107.225V0Z" fill="#90FF74"/>
<path d="M102.901 0H101.866V24H102.901V0Z" fill="#90FF74"/>
<path d="M98.7534 0H98.3131V24H98.7534V0Z" fill="#90FF74"/>
<path d="M54.7419 0H53.7072V24H54.7419V0Z" fill="#90FF74"/>
<path d="M51.0477 0H49.7047V24H51.0477V0Z" fill="#90FF74"/>
<path d="M48.1769 0H44.8745V24H48.1769V0Z" fill="#90FF74"/>
<path d="M43.1947 0H42.16V24H43.1947V0Z" fill="#90FF74"/>
<path d="M39.5423 0H38.1113V24H39.5423V0Z" fill="#90FF74"/>
<path d="M35.967 0H33.9856V24H35.967V0Z" fill="#90FF74"/>
<path d="M31.4472 0H30.8087V24H31.4472V0Z" fill="#90FF74"/>
<path d="M27.7948 0H26.76V24H27.7948V0Z" fill="#90FF74"/>
<path d="M25.0802 0H21.7779V24H25.0802V0Z" fill="#90FF74"/>
<path d="M20.25 0H18.907V24H20.25V0Z" fill="#90FF74"/>
<path d="M16.6637 0H14.7923V24H16.6637V0Z" fill="#90FF74"/>
<path d="M12.2649 0H11.4944V24H12.2649V0Z" fill="#90FF74"/>
<path d="M8.77764 0H7.28058V24H8.77764V0Z" fill="#90FF74"/>
<path d="M4.85225 0H3.5093V24H4.85225V0Z" fill="#90FF74"/>
<path d="M0.66047 0H0V24H0.66047V0Z" fill="#90FF74"/>
</svg>
