<svg width="32" height="32" viewBox="0 0 32 32" fill="none" xmlns="http://www.w3.org/2000/svg">
<rect width="32" height="32" rx="16" fill="#90FF74"/>
<path d="M23.04 17.76C23.4492 17.76 23.6538 17.76 23.8216 17.715C24.2772 17.593 24.633 17.2372 24.755 16.7816C24.8 16.6138 24.8 16.4092 24.8 16C24.8 15.5908 24.8 15.3862 24.755 15.2184C24.633 14.7628 24.2772 14.407 23.8216 14.285C23.6538 14.24 23.4492 14.24 23.04 14.24M10.72 14.24V17.76M15.12 14.24V17.76M12.48 10.72H17.76C19.4001 10.72 20.2202 10.72 20.867 10.9879C21.7295 11.3452 22.4148 12.0305 22.7721 12.893C23.04 13.5398 23.04 14.3599 23.04 16C23.04 17.6401 23.04 18.4602 22.7721 19.107C22.4148 19.9695 21.7295 20.6548 20.867 21.0121C20.2202 21.28 19.4001 21.28 17.76 21.28H12.48C10.8399 21.28 10.0198 21.28 9.37295 21.0121C8.51046 20.6548 7.8252 19.9695 7.46794 19.107C7.2 18.4602 7.2 17.6401 7.2 16C7.2 14.3599 7.2 13.5398 7.46794 12.893C7.8252 12.0305 8.51046 11.3452 9.37295 10.9879C10.0198 10.72 10.8399 10.72 12.48 10.72Z" stroke="black" stroke-width="1.5" stroke-linecap="round" stroke-linejoin="round"/>
</svg>
