<svg width="1920" height="1080" viewBox="0 0 1920 1080" fill="none" xmlns="http://www.w3.org/2000/svg">
<g opacity="0.6">
<path d="M112 0V1080" stroke="#28262C" stroke-width="1.5"/>
<path d="M256 0V1080" stroke="#28262C" stroke-width="1.5"/>
<path d="M-0.000274658 417L1920 417" stroke="#28262C" stroke-width="1.5"/>
<path d="M1808 0V1080" stroke="#28262C" stroke-width="1.5"/>
<path d="M1664 -2V1078" stroke="#28262C" stroke-width="1.5"/>
<path d="M976 0V1080" stroke="#28262C" stroke-width="1.5"/>
<g clip-path="url(#clip0_6505_110)">
<g clip-path="url(#clip1_6505_110)">
<path d="M1808 432.5L1934.5 306" stroke="#28262C" stroke-width="1.5"/>
<path d="M1808 453L1934.5 326.5" stroke="#28262C" stroke-width="1.5"/>
<path d="M1808 473.5L1934.5 347" stroke="#28262C" stroke-width="1.5"/>
<path d="M1808 494L1934.5 367.5" stroke="#28262C" stroke-width="1.5"/>
<path d="M1808 514.5L1934.5 388" stroke="#28262C" stroke-width="1.5"/>
<path d="M1808 535L1934.5 408.5" stroke="#28262C" stroke-width="1.5"/>
<path d="M1808 555.5L1934.5 429" stroke="#28262C" stroke-width="1.5"/>
<path d="M1808 576L1934.5 449.5" stroke="#28262C" stroke-width="1.5"/>
<path d="M1808 596.5L1934.5 470" stroke="#28262C" stroke-width="1.5"/>
<path d="M1808 617L1934.5 490.5" stroke="#28262C" stroke-width="1.5"/>
<path d="M1808 637.5L1934.5 511" stroke="#28262C" stroke-width="1.5"/>
<path d="M1808 658L1934.5 531.5" stroke="#28262C" stroke-width="1.5"/>
<path d="M1808 678.5L1934.5 552" stroke="#28262C" stroke-width="1.5"/>
<path d="M1808 699L1934.5 572.5" stroke="#28262C" stroke-width="1.5"/>
<path d="M1808 719.5L1934.5 593" stroke="#28262C" stroke-width="1.5"/>
<path d="M1808 740L1934.5 613.5" stroke="#28262C" stroke-width="1.5"/>
<path d="M1808 760.5L1934.5 634" stroke="#28262C" stroke-width="1.5"/>
<path d="M1808 781L1934.5 654.5" stroke="#28262C" stroke-width="1.5"/>
<path d="M1808 801.5L1934.5 675" stroke="#28262C" stroke-width="1.5"/>
<path d="M1808 822L1934.5 695.5" stroke="#28262C" stroke-width="1.5"/>
<path d="M1808 842.5L1934.5 716" stroke="#28262C" stroke-width="1.5"/>
<path d="M1808 863L1934.5 736.5" stroke="#28262C" stroke-width="1.5"/>
<path d="M1808 883.5L1934.5 757" stroke="#28262C" stroke-width="1.5"/>
<path d="M1808 904L1934.5 777.5" stroke="#28262C" stroke-width="1.5"/>
<path d="M1808 924.5L1934.5 798" stroke="#28262C" stroke-width="1.5"/>
<path d="M1808 945L1934.5 818.5" stroke="#28262C" stroke-width="1.5"/>
<path d="M1808 965.5L1934.5 839" stroke="#28262C" stroke-width="1.5"/>
<path d="M1808 986L1934.5 859.5" stroke="#28262C" stroke-width="1.5"/>
<path d="M1808 1006.5L1934.5 880" stroke="#28262C" stroke-width="1.5"/>
<path d="M1808 1027L1934.5 900.5" stroke="#28262C" stroke-width="1.5"/>
<path d="M1808 1047.5L1934.5 921" stroke="#28262C" stroke-width="1.5"/>
<path d="M1808 1068L1934.5 941.5" stroke="#28262C" stroke-width="1.5"/>
<path d="M1808 1088.5L1934.5 962" stroke="#28262C" stroke-width="1.5"/>
<path d="M1808 1109L1934.5 982.5" stroke="#28262C" stroke-width="1.5"/>
<path d="M1808 1129.5L1934.5 1003" stroke="#28262C" stroke-width="1.5"/>
<path d="M1808 1150L1934.5 1023.5" stroke="#28262C" stroke-width="1.5"/>
<path d="M1808 1170.5L1934.5 1044" stroke="#28262C" stroke-width="1.5"/>
<path d="M1808 1191L1934.5 1064.5" stroke="#28262C" stroke-width="1.5"/>
</g>
</g>
</g>
<defs>
<clipPath id="clip0_6505_110">
<rect width="127" height="660" fill="white" transform="translate(1808 420)"/>
</clipPath>
<clipPath id="clip1_6505_110">
<rect width="113" height="856" fill="white" transform="translate(1808 224)"/>
</clipPath>
</defs>
</svg>
