<svg width="64" height="64" viewBox="0 0 64 64" fill="none" xmlns="http://www.w3.org/2000/svg">
<rect width="64" height="64" rx="6" fill="#07070B"/>
<path d="M31.5 51L36.6794 21.7663C41.6108 21.7663 43.1719 22.3085 43.3908 24.5212C43.3908 24.5212 46.7027 23.2756 48.3659 20.7699C41.8588 17.7366 35.308 17.6048 35.308 17.6048L31.4854 22.2792H31.5L27.692 17.6048C27.692 17.6048 21.1412 17.7366 14.6341 20.7699C16.2973 23.2903 19.6092 24.5212 19.6092 24.5212C19.8281 22.3085 21.3892 21.7663 26.2914 21.7517L31.5 51Z" fill="#90FF74"/>
<path d="M31.5 16.2566C36.767 16.2127 42.7926 17.0772 48.9641 19.7735C49.7957 18.2788 50 17.6194 50 17.6194C43.2595 14.9378 36.942 14.0293 31.5 14C26.0726 14.0293 19.7551 14.9378 13 17.6194C13 17.6194 13.3064 18.4253 14.0359 19.7735C20.2074 17.0626 26.233 16.2127 31.5 16.2566Z" fill="#90FF74"/>
</svg>
