<svg width="32" height="32" viewBox="0 0 32 32" fill="none" xmlns="http://www.w3.org/2000/svg">
<rect width="32" height="32" rx="16" fill="#90FF74"/>
<path d="M8.99991 16H22.9999M8.99991 16C8.99991 19.866 12.1339 23 15.9999 23M8.99991 16C8.99991 12.134 12.1339 9 15.9999 9M22.9999 16C22.9999 19.866 19.8659 23 15.9999 23M22.9999 16C22.9999 12.134 19.8659 9 15.9999 9M15.9999 9C17.7508 10.9168 18.7458 13.4044 18.7999 16C18.7458 18.5956 17.7508 21.0832 15.9999 23M15.9999 9C14.249 10.9168 13.254 13.4044 13.1999 16C13.254 18.5956 14.249 21.0832 15.9999 23" stroke="black" stroke-width="1.5" stroke-linecap="round" stroke-linejoin="round"/>
</svg>
