<svg width="30" height="30" viewBox="0 0 30 30" fill="none" xmlns="http://www.w3.org/2000/svg">
<path d="M27.5 15C27.5 21.9038 21.9038 27.5 15 27.5C8.09625 27.5 2.5 21.9038 2.5 15C2.5 8.09625 8.09625 2.5 15 2.5C21.9038 2.5 27.5 8.09625 27.5 15ZM11.5675 25.0588C11.1915 24.5176 10.87 23.9406 10.6075 23.3363C10.1025 22.1988 9.705 20.855 9.43875 19.375H5.31375C5.9138 20.6986 6.77808 21.8855 7.8535 22.8629C8.92892 23.8403 10.1928 24.5875 11.5675 25.0588ZM12.3213 22.5738C12.7413 23.52 13.2188 24.2288 13.7 24.6863C14.1775 25.1413 14.615 25.3125 15 25.3125C15.385 25.3125 15.8225 25.1413 16.3 24.6875C16.7813 24.2288 17.2588 23.52 17.6788 22.575C18.08 21.6713 18.4138 20.5875 18.6538 19.375H11.345C11.585 20.5875 11.9188 21.6713 12.32 22.575L12.3213 22.5738ZM10.9375 15C10.9383 15.865 10.9813 16.6983 11.0663 17.5H18.9338C19.0188 16.6983 19.0617 15.865 19.0625 15C19.0617 14.135 19.0188 13.3017 18.9338 12.5H11.0663C10.9813 13.3017 10.9383 14.135 10.9375 15ZM9.18125 12.5H4.67125C4.47378 13.3186 4.37433 14.1579 4.375 15C4.375 15.8613 4.4775 16.6988 4.67125 17.5H9.18125C9.02216 15.8371 9.02216 14.1629 9.18125 12.5ZM11.3463 10.625H18.6525C18.415 9.4125 18.08 8.32875 17.6788 7.425C17.2588 6.48 16.7813 5.77125 16.3 5.3125C15.8225 4.85875 15.385 4.6875 15 4.6875C14.615 4.6875 14.1775 4.85875 13.7 5.3125C13.2188 5.77125 12.7413 6.48 12.3213 7.425C11.92 8.32875 11.5863 9.4125 11.3463 10.625ZM20.8175 12.5C20.9789 14.1628 20.9789 15.8372 20.8175 17.5H25.33C25.5271 16.6813 25.6261 15.8421 25.625 15C25.6257 14.1579 25.5262 13.3186 25.3288 12.5H20.8175ZM24.685 10.625C24.0851 9.30157 23.221 8.11472 22.1458 7.13733C21.0706 6.15993 19.807 5.41261 18.4325 4.94125C18.7913 5.45125 19.1113 6.0325 19.3925 6.66375C19.8975 7.80125 20.295 9.145 20.5613 10.625H24.6863H24.685ZM9.43875 10.625C9.705 9.145 10.1025 7.8 10.6075 6.66375C10.8888 6.0325 11.2075 5.45125 11.5675 4.94125C10.193 5.41261 8.9294 6.15993 7.8542 7.13733C6.77899 8.11472 5.91491 9.30157 5.315 10.625H9.43875ZM19.3925 23.3363C19.1113 23.9675 18.7925 24.5488 18.4325 25.0588C19.807 24.5874 21.0706 23.8401 22.1458 22.8627C23.221 21.8853 24.0851 20.6984 24.685 19.375H20.56C20.295 20.855 19.8975 22.2 19.3925 23.3363Z" fill="white"/>
</svg>
