<svg width="30" height="30" viewBox="0 0 30 30" fill="none" xmlns="http://www.w3.org/2000/svg">
<path d="M15 2.5C8.09625 2.5 2.5 8.09625 2.5 15C2.5 21.9038 8.09625 27.5 15 27.5C21.9038 27.5 27.5 21.9038 27.5 15C27.5 8.09625 21.9038 2.5 15 2.5ZM8.5725 23.44C9.32875 21.105 11.975 19.39 15 19.39C18.025 19.39 20.6713 21.105 21.4275 23.44C19.64 24.805 17.4163 25.625 15 25.625C12.5838 25.625 10.36 24.805 8.5725 23.44ZM22.9088 22.0713C21.6338 19.365 18.555 17.515 15 17.515C11.445 17.515 8.36625 19.365 7.09125 22.0713C5.34373 20.1304 4.37619 17.6116 4.375 15C4.375 9.14125 9.14125 4.375 15 4.375C20.8588 4.375 25.625 9.14125 25.625 15C25.6238 17.6116 24.6563 20.1304 22.9088 22.0713ZM15 7.5C14.4255 7.5 13.8566 7.61316 13.3258 7.83303C12.795 8.05289 12.3127 8.37515 11.9064 8.78141C11.5002 9.18766 11.1779 9.66996 10.958 10.2008C10.7382 10.7316 10.625 11.3005 10.625 11.875C10.625 12.4495 10.7382 13.0184 10.958 13.5492C11.1779 14.08 11.5002 14.5623 11.9064 14.9686C12.3127 15.3748 12.795 15.6971 13.3258 15.917C13.8566 16.1368 14.4255 16.25 15 16.25C16.1603 16.25 17.2731 15.7891 18.0936 14.9686C18.9141 14.1481 19.375 13.0353 19.375 11.875C19.375 10.7147 18.9141 9.60188 18.0936 8.78141C17.2731 7.96094 16.1603 7.5 15 7.5ZM15 14.375C13.6213 14.375 12.5 13.2538 12.5 11.875C12.5 10.4963 13.6213 9.375 15 9.375C16.3788 9.375 17.5 10.4963 17.5 11.875C17.5 13.2538 16.3788 14.375 15 14.375Z" fill="white"/>
</svg>
