<svg width="30" height="30" viewBox="0 0 30 30" fill="none" xmlns="http://www.w3.org/2000/svg">
<path d="M15 25.625C12.1821 25.625 9.47957 24.5056 7.48699 22.513C5.49442 20.5204 4.375 17.8179 4.375 15C4.375 12.1821 5.49442 9.47957 7.48699 7.48699C9.47957 5.49442 12.1821 4.375 15 4.375C17.8179 4.375 20.5204 5.49442 22.513 7.48699C24.5056 9.47957 25.625 12.1821 25.625 15C25.625 17.8179 24.5056 20.5204 22.513 22.513C20.5204 24.5056 17.8179 25.625 15 25.625ZM15 27.5C21.9038 27.5 27.5 21.9038 27.5 15C27.5 8.09625 21.9038 2.5 15 2.5C8.09625 2.5 2.5 8.09625 2.5 15C2.5 21.9038 8.09625 27.5 15 27.5ZM15 20C14.6685 20 14.3505 20.1317 14.1161 20.3661C13.8817 20.6005 13.75 20.9185 13.75 21.25C13.75 21.5815 13.8817 21.8995 14.1161 22.1339C14.3505 22.3683 14.6685 22.5 15 22.5C15.3315 22.5 15.6495 22.3683 15.8839 22.1339C16.1183 21.8995 16.25 21.5815 16.25 21.25C16.25 20.9185 16.1183 20.6005 15.8839 20.3661C15.6495 20.1317 15.3315 20 15 20ZM15.0663 15.5838C15.4251 15.2359 15.8095 14.9154 16.2163 14.625C16.5442 14.3926 16.8558 14.1378 17.1488 13.8625C17.388 13.6336 17.5859 13.365 17.7338 13.0688C17.8913 12.7521 17.9696 12.3842 17.9688 11.965C17.9688 11.4983 17.8663 11.0617 17.6613 10.655C17.4638 10.25 17.1425 9.92 16.6975 9.665C16.2525 9.41083 15.685 9.28375 14.995 9.28375C14.2767 9.28375 13.6888 9.42833 13.2313 9.7175C12.7978 9.97994 12.4542 10.3679 12.2463 10.83C12.1713 10.9975 12.1096 11.1696 12.0613 11.3463C11.9225 11.8638 11.505 12.305 10.9688 12.305C10.4338 12.305 9.98875 11.8675 10.0813 11.34C10.1696 10.8317 10.3304 10.3525 10.5638 9.9025C10.9404 9.17333 11.5113 8.5925 12.2763 8.16C13.0438 7.72 13.9808 7.5 15.0875 7.5C16.25 7.5 17.1971 7.72667 17.9288 8.18C18.6663 8.62667 19.1958 9.18375 19.5175 9.85125C19.8392 10.5188 20 11.1888 20 11.8613C20 12.5421 19.8942 13.1267 19.6825 13.615C19.47 14.0958 19.2133 14.4875 18.9125 14.79C18.6183 15.0925 18.2254 15.4329 17.7338 15.8113C17.3438 16.1213 17.0325 16.3858 16.8 16.605C16.575 16.825 16.3871 17.0863 16.2363 17.3888C16.1738 17.5129 16.1267 17.6388 16.095 17.7663C15.96 18.2963 15.5675 18.75 15.02 18.75C14.4738 18.75 14.0125 18.305 14.07 17.7625C14.1503 16.9456 14.5009 16.1789 15.0663 15.5838Z" fill="white"/>
</svg>
