<svg width="50" height="44" viewBox="0 0 50 44" fill="none" xmlns="http://www.w3.org/2000/svg">
<path d="M8.72819 8.7484H41.1471C43.2805 8.24257 45.2344 7.15921 46.7955 5.61649C48.3567 4.07378 49.4651 2.13096 50 0L0 0C0.524735 2.11537 1.61451 4.04748 3.15228 5.58881C4.69005 7.13014 6.61771 8.22245 8.72819 8.7484ZM8.72819 25.9952H41.1471C43.2805 25.4894 45.2344 24.4061 46.7955 22.8633C48.3567 21.3206 49.4651 19.3778 50 17.2468H0C0.524735 19.3622 1.61451 21.2943 3.15228 22.8357C4.69005 24.377 6.61771 25.4693 8.72819 25.9952ZM8.72819 43.617H41.1471C43.2805 43.1112 45.2344 42.0278 46.7955 40.4851C48.3567 38.9424 49.4651 36.9996 50 34.8686H0C0.524735 36.984 1.61451 38.9161 3.15228 40.4574C4.69005 41.9988 6.61771 43.0911 8.72819 43.617Z" fill="#90FF74"/>
</svg>
