<svg width="208" height="208" viewBox="0 0 208 208" fill="none" xmlns="http://www.w3.org/2000/svg">
<path d="M193.293 105.853L203.893 103.783L203.751 105.822L194.73 107.398L194.767 106.868L203.476 109.775L203.339 111.744L194.312 113.404L194.349 112.873L203.065 115.683L202.923 117.722L192.712 114.205L192.864 112.026L201.655 110.322L201.613 110.936L193.142 108.032L193.293 105.853Z" fill="#737373"/>
<path d="M192.246 117.224L202.498 119.139L201.226 125.951L199.575 125.643L200.497 120.702L197.869 120.211L196.997 124.877L195.346 124.568L196.217 119.903L193.548 119.404L192.625 124.345L190.973 124.036L192.246 117.224Z" fill="#737373"/>
<path d="M188.475 124.704L189.357 124.928C189.353 125.245 189.432 125.521 189.594 125.755C189.745 125.995 189.986 126.182 190.318 126.315L190.522 125.514L192.421 125.998L191.965 127.789L190.799 127.492C190.003 127.289 189.41 126.95 189.02 126.475C188.629 126.009 188.447 125.419 188.475 124.704Z" fill="#737373"/>
<path d="M188.672 132.063L198.423 135.764L197.047 139.39C196.796 140.053 196.452 140.591 196.015 141.005C195.584 141.43 195.083 141.699 194.511 141.811C193.948 141.927 193.339 141.861 192.685 141.612C192.013 141.357 191.503 140.979 191.154 140.477C190.802 139.984 190.615 139.424 190.594 138.797L185.83 139.55L186.595 137.534L191.785 136.764L190.667 137.657L191.596 135.209L187.996 133.843L188.672 132.063ZM193.166 135.805L192.456 137.677C192.334 138 192.289 138.303 192.321 138.584C192.363 138.87 192.472 139.121 192.649 139.338C192.827 139.555 193.064 139.72 193.36 139.832C193.666 139.948 193.952 139.982 194.22 139.934C194.497 139.889 194.741 139.772 194.952 139.583C195.173 139.397 195.344 139.143 195.467 138.82L196.177 136.948L193.166 135.805Z" fill="#737373"/>
<path d="M183.261 144.292C183.609 143.61 184.053 143.035 184.595 142.567C185.137 142.1 185.736 141.755 186.393 141.535C187.05 141.314 187.733 141.227 188.442 141.274C189.156 141.333 189.853 141.536 190.535 141.884C191.226 142.235 191.801 142.68 192.26 143.217C192.72 143.755 193.053 144.354 193.262 145.015C193.47 145.676 193.54 146.361 193.472 147.07C193.413 147.783 193.207 148.485 192.856 149.176C192.505 149.866 192.058 150.445 191.516 150.913C190.974 151.381 190.375 151.725 189.718 151.946C189.07 152.171 188.393 152.256 187.688 152.2C186.978 152.154 186.279 151.954 185.588 151.603C184.906 151.256 184.333 150.807 183.87 150.257C183.415 149.711 183.083 149.108 182.875 148.447C182.667 147.786 182.592 147.099 182.652 146.385C182.707 145.68 182.91 144.983 183.261 144.292ZM184.809 145.08C184.576 145.537 184.441 145.997 184.404 146.46C184.376 146.928 184.435 147.377 184.582 147.808C184.725 148.247 184.958 148.643 185.281 148.996C185.6 149.357 185.993 149.657 186.458 149.894C186.924 150.131 187.393 150.27 187.864 150.311C188.34 150.364 188.797 150.32 189.236 150.177C189.68 150.046 190.078 149.83 190.431 149.528C190.783 149.226 191.076 148.846 191.309 148.388C191.538 147.939 191.67 147.483 191.707 147.02C191.744 146.557 191.686 146.104 191.535 145.66C191.388 145.229 191.155 144.833 190.836 144.472C190.526 144.115 190.137 143.818 189.672 143.58C189.206 143.343 188.733 143.202 188.253 143.157C187.774 143.112 187.316 143.157 186.881 143.291C186.442 143.434 186.042 143.655 185.681 143.953C185.328 144.255 185.037 144.63 184.809 145.08Z" fill="#737373"/>
<path d="M180.334 150.005L189.03 155.765L186.603 159.43C186.221 160.006 185.795 160.429 185.325 160.699C184.857 160.983 184.369 161.113 183.859 161.088C183.351 161.077 182.841 160.901 182.327 160.561C181.93 160.298 181.629 159.942 181.423 159.492C181.22 159.055 181.16 158.529 181.244 157.912L181.979 158.399C181.532 158.719 181.106 158.923 180.699 159.013C180.293 159.102 179.909 159.099 179.546 159.004C179.183 158.91 178.839 158.754 178.512 158.538C177.679 157.986 177.209 157.277 177.1 156.41C176.994 155.556 177.263 154.643 177.907 153.67L180.334 150.005ZM180.684 152.52L179.199 154.762C178.926 155.174 178.823 155.575 178.889 155.966C178.957 156.37 179.182 156.698 179.563 156.95C179.945 157.203 180.334 157.282 180.733 157.188C181.126 157.101 181.459 156.851 181.732 156.439L183.217 154.198L180.684 152.52ZM184.606 155.118L183.175 157.277C182.959 157.604 182.88 157.927 182.938 158.245C183.003 158.568 183.188 158.83 183.491 159.031C183.795 159.232 184.1 159.295 184.408 159.219C184.716 159.143 184.978 158.942 185.195 158.615L186.625 156.455L184.606 155.118Z" fill="#737373"/>
<path d="M172.288 160.84C172.778 160.251 173.339 159.789 173.971 159.454C174.603 159.118 175.264 158.915 175.953 158.845C176.643 158.776 177.328 158.843 178.009 159.046C178.692 159.262 179.327 159.615 179.915 160.105C180.51 160.6 180.972 161.161 181.301 161.788C181.63 162.414 181.822 163.072 181.879 163.763C181.935 164.453 181.851 165.137 181.628 165.813C181.412 166.496 181.056 167.135 180.56 167.73C180.064 168.325 179.501 168.791 178.868 169.127C178.236 169.463 177.576 169.665 176.886 169.735C176.204 169.81 175.525 169.743 174.85 169.533C174.168 169.33 173.53 168.98 172.935 168.484C172.347 167.995 171.888 167.43 171.558 166.791C171.235 166.158 171.046 165.496 170.989 164.805C170.933 164.114 171.013 163.428 171.229 162.745C171.439 162.07 171.792 161.435 172.288 160.84ZM173.622 161.951C173.293 162.345 173.06 162.764 172.921 163.207C172.79 163.657 172.748 164.108 172.796 164.561C172.838 165.021 172.977 165.459 173.214 165.874C173.445 166.297 173.761 166.676 174.163 167.011C174.564 167.345 174.99 167.585 175.441 167.729C175.893 167.887 176.348 167.945 176.809 167.903C177.27 167.874 177.706 167.751 178.117 167.535C178.528 167.319 178.898 167.013 179.226 166.619C179.549 166.232 179.779 165.816 179.918 165.373C180.057 164.929 180.101 164.475 180.052 164.009C180.004 163.556 179.865 163.118 179.634 162.695C179.411 162.278 179.098 161.902 178.696 161.568C178.295 161.233 177.865 160.991 177.407 160.84C176.95 160.69 176.494 160.632 176.04 160.667C175.58 160.709 175.141 160.835 174.722 161.045C174.311 161.261 173.944 161.563 173.622 161.951Z" fill="#737373"/>
<path d="M166.962 166.923L173.035 173.221L174.98 171.346L176.147 172.555L170.906 177.608L169.74 176.399L171.655 174.553L165.581 168.254L166.962 166.923Z" fill="#737373"/>
<path d="M147.1 182.886C147.577 182.611 148.073 182.471 148.587 182.466C149.093 182.466 149.571 182.594 150.021 182.852C150.463 183.115 150.823 183.488 151.103 183.974C151.368 184.435 151.497 184.91 151.488 185.4C151.484 185.898 151.355 186.365 151.1 186.802C150.846 187.24 150.472 187.6 149.979 187.885C149.51 188.155 149.03 188.285 148.541 188.277C148.051 188.268 147.59 188.14 147.157 187.894C146.724 187.648 146.374 187.301 146.105 186.852C145.825 186.367 145.683 185.867 145.678 185.353C145.672 184.839 145.793 184.366 146.039 183.933C146.277 183.506 146.631 183.156 147.1 182.886Z" fill="#90FF74"/>
<path d="M131.031 188.875L133.873 198.911L132.041 199.429L129.657 191.011L125.36 192.228L124.902 190.611L131.031 188.875Z" fill="#737373"/>
<path d="M124.665 190.734L123.001 201.641L120.578 202.085L115.162 192.472L117.201 192.099L118.333 194.169L122.3 193.444L122.641 191.105L124.665 190.734ZM122.065 195.195L119.173 195.724L121.814 200.521L121.291 200.616L122.065 195.195Z" fill="#737373"/>
<path d="M110.51 192.64C111.31 192.578 112.035 192.691 112.685 192.977C113.325 193.265 113.844 193.688 114.243 194.247C114.642 194.806 114.87 195.458 114.928 196.202L115.445 202.888L113.546 203.035L113.037 196.447C113.004 196.019 112.881 195.64 112.668 195.31C112.446 194.98 112.16 194.731 111.81 194.562C111.461 194.401 111.072 194.338 110.644 194.371C110.207 194.405 109.832 194.527 109.521 194.739C109.201 194.96 108.961 195.25 108.802 195.609C108.633 195.968 108.565 196.362 108.598 196.79L109.108 203.378L107.209 203.525L106.692 196.839C106.635 196.094 106.76 195.415 107.069 194.802C107.377 194.188 107.83 193.69 108.427 193.307C109.016 192.924 109.71 192.702 110.51 192.64Z" fill="#737373"/>
<path d="M104.765 193.136L104.443 203.561L102.96 203.516L97.4612 195.614L98.2356 195.484L97.9922 203.362L96.0891 203.303L96.4111 192.878L97.9084 192.925L103.321 200.879L102.617 201.012L102.862 193.078L104.765 193.136Z" fill="#737373"/>
<path d="M90.5329 191.928C91.2724 192.031 91.9377 192.261 92.5288 192.616C93.1108 192.971 93.6039 193.421 94.0082 193.968C94.4033 194.513 94.6851 195.127 94.8536 195.81C95.0222 196.494 95.0529 197.219 94.9458 197.986C94.8387 198.753 94.6152 199.443 94.2753 200.055C93.9249 200.675 93.4857 201.189 92.9577 201.596C92.4192 202.011 91.8176 202.304 91.1529 202.475C90.4869 202.655 89.7841 202.694 89.0446 202.591C88.3051 202.487 87.6616 202.27 87.1141 201.939C86.5574 201.607 86.1046 201.205 85.756 200.732C85.406 200.269 85.1774 199.78 85.0702 199.265L86.8721 198.711C86.9939 199.256 87.2627 199.727 87.6785 200.124C88.0929 200.531 88.6283 200.78 89.2846 200.871C89.9317 200.962 90.5261 200.889 91.0678 200.654C91.6003 200.417 92.0426 200.05 92.3948 199.553C92.7377 199.054 92.9594 198.444 93.0601 197.723C93.1607 197.002 93.115 196.35 92.9231 195.767C92.7206 195.192 92.3957 194.718 91.9484 194.345C91.4918 193.97 90.94 193.738 90.2929 193.647C89.6366 193.556 89.0541 193.644 88.5455 193.912C88.0356 194.19 87.6474 194.574 87.381 195.064L85.7998 194.038C86.0438 193.573 86.3982 193.16 86.8629 192.801C87.3264 192.451 87.8714 192.193 88.4978 192.026C89.115 191.857 89.7934 191.825 90.5329 191.928Z" fill="#737373"/>
<path d="M85.1027 191.212L82.4894 201.31L80.6462 200.832L81.7862 196.428L77.4897 195.316L76.3497 199.72L74.4929 199.24L77.1062 189.143L78.963 189.623L77.9107 193.689L82.2071 194.801L83.2594 190.735L85.1027 191.212Z" fill="#737373"/>
<path d="M75.8628 188.641L72.5311 198.525L70.7269 197.917L74.0585 188.033L75.8628 188.641Z" fill="#737373"/>
<path d="M72.4465 187.531L68.3835 197.137L67.0167 196.559L64.7406 187.206L65.5098 187.364L62.4393 194.623L60.6857 193.881L64.7487 184.275L66.1284 184.859L68.3053 194.231L67.6006 194.1L70.6929 186.789L72.4465 187.531Z" fill="#737373"/>
<path d="M59.6309 181.267C60.2807 181.634 60.815 182.093 61.234 182.641C61.6529 183.189 61.9499 183.792 62.125 184.448C62.3002 185.105 62.3445 185.785 62.2582 186.487C62.1637 187.184 61.9257 187.87 61.544 188.544C61.1623 189.218 60.7009 189.777 60.1597 190.221C59.6059 190.669 59.0086 190.985 58.368 191.17C57.7146 191.358 57.0475 191.409 56.3664 191.324C55.6808 191.246 55.0131 191.024 54.3633 190.656C53.7135 190.288 53.1949 189.85 52.8074 189.341C52.4117 188.827 52.1387 188.286 51.9882 187.719C51.8332 187.159 51.8004 186.62 51.8898 186.102L53.764 186.23C53.6678 186.798 53.74 187.343 53.9806 187.865C54.2211 188.388 54.6338 188.814 55.2186 189.145C55.7871 189.467 56.3666 189.618 56.9569 189.599C57.5391 189.574 58.0854 189.396 58.5958 189.062C59.098 188.725 59.5284 188.239 59.8871 187.606C60.2458 186.972 60.4389 186.347 60.4666 185.73C60.4815 185.116 60.3455 184.551 60.0587 184.035C59.7719 183.518 59.3442 183.099 58.7756 182.777C58.3127 182.515 57.8357 182.363 57.3447 182.321C56.8491 182.287 56.3892 182.37 55.9651 182.57C55.5365 182.777 55.1911 183.113 54.929 183.576L54.5358 184.27L54.153 183.185L57.5155 185.088L56.7222 186.489L52.4582 184.075L52.9755 183.162C53.371 182.463 53.8382 181.913 54.3772 181.51C54.9163 181.107 55.4923 180.838 56.1053 180.702C56.7056 180.57 57.3104 180.553 57.9198 180.652C58.5245 180.758 59.0949 180.963 59.6309 181.267Z" fill="#737373"/>
<path d="M50.8441 175.777L44.5862 184.121L43.063 182.978L49.3209 174.634L50.8441 175.777Z" fill="#737373"/>
<path d="M47.9446 173.66L41.0959 181.526L39.9767 180.552L40.722 170.954L41.4038 171.343L36.2283 177.288L34.7922 176.038L41.6409 168.171L42.7707 169.155L41.9253 178.74L41.2963 178.396L46.5086 172.409L47.9446 173.66Z" fill="#737373"/>
<path d="M38.5224 164.945L37.4383 165.896L33.3527 165.717C32.5414 165.684 31.9075 165.669 31.4509 165.672C30.9812 165.674 30.6116 165.713 30.3421 165.788C30.0726 165.863 29.8397 165.987 29.6432 166.159C29.3134 166.448 29.1461 166.781 29.1412 167.158C29.1303 167.527 29.2663 167.874 29.5494 168.196C29.8448 168.533 30.1984 168.738 30.6103 168.812C31.0152 168.891 31.4528 168.824 31.9231 168.61L32.6322 170.204C32.1443 170.483 31.6357 170.625 31.1063 170.63C30.5698 170.641 30.0578 170.531 29.5703 170.301C29.0695 170.07 28.6345 169.744 28.2653 169.323C27.8222 168.817 27.5257 168.295 27.3758 167.756C27.2198 167.21 27.2144 166.688 27.3595 166.188C27.4986 165.681 27.7891 165.234 28.2312 164.846C28.5119 164.6 28.8352 164.41 29.2012 164.275C29.5671 164.14 29.9863 164.052 30.4586 164.01C30.9239 163.974 31.4797 163.971 32.1259 164L35.6781 164.144L32.6964 160.744L33.9068 159.682L38.5224 164.945Z" fill="#737373"/>
<path d="M31.2022 155.722C31.6884 156.396 31.9329 157.117 31.9356 157.886C31.9384 158.656 31.7143 159.422 31.2635 160.184C30.8073 160.94 30.144 161.631 29.2737 162.26C28.3959 162.893 27.5305 163.305 26.6775 163.495C25.8246 163.685 25.0335 163.657 24.3042 163.412C23.575 163.167 22.9673 162.708 22.4811 162.035C21.984 161.346 21.7368 160.621 21.7395 159.859C21.7367 159.09 21.9608 158.324 22.4116 157.561C22.8548 156.804 23.5116 156.111 24.3818 155.483C25.2521 154.855 26.1203 154.447 26.9862 154.259C27.8392 154.069 28.634 154.094 29.3709 154.333C30.1001 154.578 30.7106 155.041 31.2022 155.722ZM29.7864 156.727C29.5078 156.341 29.1529 156.096 28.7216 155.993C28.2828 155.896 27.792 155.933 27.2493 156.106C26.6936 156.277 26.1092 156.584 25.4962 157.027C24.8833 157.469 24.4119 157.924 24.0823 158.393C23.7396 158.859 23.552 159.316 23.5195 159.766C23.4815 160.207 23.6046 160.625 23.8887 161.019C24.1618 161.397 24.514 161.638 24.9453 161.741C25.3765 161.844 25.87 161.81 26.4258 161.639C26.9685 161.466 27.5463 161.158 28.1593 160.716C28.7647 160.279 29.2388 159.827 29.5815 159.361C29.9112 158.893 30.0987 158.435 30.1443 157.988C30.1843 157.533 30.065 157.113 29.7864 156.727Z" fill="#737373"/>
<path d="M28.1088 151.563L26.8646 152.292L22.8863 151.345C22.0959 151.159 21.4762 151.024 21.0273 150.941C20.5656 150.855 20.1954 150.823 19.9166 150.846C19.6378 150.868 19.3857 150.946 19.1602 151.078C18.7817 151.299 18.5545 151.595 18.4786 151.964C18.3979 152.325 18.4661 152.69 18.6831 153.061C18.9096 153.447 19.2181 153.716 19.6087 153.865C19.9913 154.02 20.4337 154.036 20.936 153.915L21.3311 155.615C20.7994 155.796 20.2731 155.84 19.7522 155.745C19.2233 155.654 18.7412 155.45 18.306 155.131C17.858 154.81 17.4924 154.407 17.2094 153.924C16.8697 153.344 16.6772 152.776 16.6318 152.218C16.5818 151.652 16.6752 151.138 16.9122 150.675C17.1445 150.203 17.5143 149.819 18.0216 149.522C18.3438 149.333 18.6973 149.207 19.0821 149.144C19.4669 149.081 19.8952 149.073 20.3669 149.122C20.8306 149.174 21.377 149.276 22.0061 149.427L25.4671 150.239L23.1815 146.337L24.5707 145.523L28.1088 151.563Z" fill="#737373"/>
<path d="M22.963 141.777C23.1999 142.274 23.3342 142.794 23.3657 143.338C23.3932 143.873 23.3168 144.385 23.1364 144.874C22.9436 145.359 22.6394 145.773 22.2239 146.115L20.9822 144.877C21.3436 144.529 21.5533 144.145 21.6113 143.724C21.6609 143.308 21.5933 142.906 21.4086 142.518C21.2559 142.198 21.054 141.948 20.8027 141.768C20.539 141.583 20.2529 141.482 19.9443 141.464C19.6273 141.449 19.3045 141.52 18.9759 141.677C18.6473 141.834 18.395 142.042 18.219 142.302C18.0389 142.553 17.9397 142.833 17.9214 143.141C17.8946 143.454 17.9575 143.77 18.1102 144.091C18.2668 144.419 18.481 144.684 18.7527 144.885C19.0205 145.078 19.3172 145.169 19.6431 145.159L19.9958 146.712L14.4085 148.461L11.9626 143.33L13.4159 142.637L15.5365 147.085L14.4836 146.796L18.6795 145.448L18.5101 146.133C18.0522 146.062 17.6629 145.896 17.3422 145.635C17.0174 145.366 16.7386 144.987 16.5057 144.499C16.2084 143.875 16.0862 143.272 16.1389 142.688C16.1876 142.096 16.3834 141.564 16.7263 141.09C17.0692 140.616 17.5439 140.235 18.1505 139.946C18.7571 139.657 19.3751 139.543 20.0043 139.605C20.6335 139.667 21.2076 139.884 21.7266 140.257C22.2456 140.63 22.6577 141.137 22.963 141.777Z" fill="#737373"/>
<path d="M14.8881 120.266C14.9995 120.805 14.9772 121.319 14.8211 121.809C14.663 122.29 14.3911 122.703 14.0052 123.05C13.6175 123.387 13.1494 123.613 12.601 123.726C12.08 123.834 11.5884 123.807 11.126 123.645C10.6546 123.485 10.2511 123.216 9.91556 122.837C9.58001 122.458 9.35463 121.99 9.23943 121.433C9.1299 120.903 9.15603 120.406 9.31783 119.944C9.47963 119.482 9.74527 119.084 10.1147 118.75C10.4842 118.416 10.9239 118.192 11.4339 118.077C11.9823 117.964 12.5014 117.985 12.9911 118.141C13.4808 118.298 13.8925 118.56 14.2262 118.93C14.5579 119.29 14.7786 119.735 14.8881 120.266Z" fill="#90FF74"/>
<path d="M14.1787 100.957L3.57169 102.985L3.72137 100.947L12.7485 99.4057L12.7095 99.9362L4.0115 96.9954L4.15605 95.0267L13.1893 93.4018L13.1503 93.9324L4.44515 91.0893L4.59483 89.0508L14.7918 92.607L14.6319 94.7852L5.83394 96.4554L5.87904 95.8411L14.3387 98.7784L14.1787 100.957Z" fill="#737373"/>
<path d="M15.2511 89.6695L5.00582 87.7153L6.30422 80.9081L7.95447 81.2228L7.0128 86.1598L9.63945 86.6608L10.5287 81.9989L12.1789 82.3136L11.2897 86.9756L13.9576 87.4845L14.8993 82.5475L16.5495 82.8622L15.2511 89.6695Z" fill="#737373"/>
<path d="M19.0481 82.1858L18.1671 81.9578C18.172 81.6409 18.0939 81.3652 17.9329 81.1307C17.7832 80.8895 17.5426 80.7019 17.2109 80.5679L17.0039 81.3675L15.1065 80.8764L15.5695 79.0874L16.7351 79.389C17.5302 79.5948 18.1216 79.9359 18.5093 80.4122C18.8993 80.8795 19.0789 81.4707 19.0481 82.1858Z" fill="#737373"/>
<path d="M18.7477 75.1794L8.99628 71.4787L10.3723 67.853C10.6239 67.1898 10.968 66.6516 11.4044 66.2382C11.8354 65.8127 12.3368 65.5438 12.9085 65.4314C13.4716 65.3156 14.0803 65.3819 14.7348 65.6303C15.4067 65.8853 15.917 66.2636 16.2656 66.7653C16.6176 67.2583 16.8044 67.8183 16.826 68.4454L21.589 67.6925L20.824 69.7082L15.6349 70.4791L16.7526 69.5856L15.8237 72.0333L19.4232 73.3993L18.7477 75.1794ZM14.253 71.4372L14.9634 69.5654C15.0859 69.2426 15.1308 68.9402 15.098 68.6582C15.0566 68.3729 14.9472 68.1218 14.77 67.9048C14.5928 67.6878 14.3559 67.523 14.0592 67.4104C13.7538 67.2945 13.4672 67.2606 13.1993 67.3087C12.9228 67.3535 12.6787 67.4705 12.4671 67.6597C12.2468 67.8457 12.0754 68.1001 11.9529 68.4229L11.2425 70.2947L14.253 71.4372Z" fill="#737373"/>
<path d="M24.2324 62.7748C23.8828 63.4556 23.4361 64.0289 22.8926 64.4947C22.3491 64.9605 21.7484 65.3025 21.0907 65.5207C20.433 65.739 19.7496 65.8234 19.0405 65.7739C18.3274 65.7119 17.6304 65.5061 16.9496 65.1564C16.2606 64.8024 15.6873 64.3558 15.2298 63.8166C14.7723 63.2773 14.4407 62.6768 14.2351 62.015C14.0294 61.3532 13.9617 60.6679 14.032 59.9591C14.094 59.2459 14.302 58.5448 14.6559 57.8558C15.0099 57.1667 15.4586 56.5893 16.0022 56.1235C16.5457 55.6577 17.1464 55.3157 17.8041 55.0974C18.4535 54.8749 19.1306 54.7925 19.8354 54.8503C20.5445 54.8997 21.2436 55.1014 21.9327 55.4554C22.6135 55.805 23.1846 56.2558 23.6461 56.8077C24.0993 57.3552 24.4288 57.9599 24.6345 58.6217C24.8402 59.2834 24.912 59.9709 24.85 60.684C24.7922 61.3888 24.5864 62.0858 24.2324 62.7748ZM22.6882 61.9816C22.9228 61.525 23.0593 61.0653 23.0977 60.6023C23.1278 60.1351 23.0701 59.6858 22.9245 59.2543C22.7832 58.8144 22.5517 58.4174 22.2299 58.0633C21.9125 57.7009 21.5213 57.4003 21.0563 57.1614C20.5914 56.9226 20.1233 56.7819 19.6521 56.7392C19.1769 56.6839 18.7193 56.727 18.2795 56.8683C17.8356 56.997 17.4367 57.2118 17.0828 57.5127C16.7289 57.8136 16.4347 58.1923 16.2001 58.649C15.9699 59.0973 15.8355 59.5529 15.7971 60.0158C15.7586 60.4787 15.8142 60.9322 15.9639 61.3763C16.1094 61.8079 16.341 62.2049 16.6585 62.5673C16.9676 62.9255 17.3547 63.2239 17.8196 63.4628C18.2845 63.7016 18.7567 63.8445 19.2363 63.8914C19.7158 63.9384 20.1733 63.8953 20.6089 63.7623C21.0487 63.621 21.4498 63.402 21.812 63.1054C22.1659 62.8046 22.458 62.43 22.6882 61.9816Z" fill="#737373"/>
<path d="M27.0504 57.238L18.3548 51.4786L20.7822 47.8136C21.1636 47.2378 21.5894 46.8146 22.0597 46.5439C22.5274 46.2604 23.0163 46.1308 23.5263 46.1551C24.0337 46.1665 24.5442 46.3423 25.0578 46.6825C25.4546 46.9453 25.756 47.3016 25.9618 47.7514C26.1651 48.1883 26.2249 48.7149 26.1413 49.3312L25.406 48.8442C25.8528 48.5245 26.2794 48.32 26.6855 48.2307C27.0916 48.1415 27.4761 48.1442 27.8387 48.2389C28.2014 48.3336 28.5462 48.4892 28.873 48.7056C29.7056 49.2571 30.1763 49.9663 30.285 50.8331C30.3911 51.687 30.1221 52.6003 29.4778 53.573L27.0504 57.238ZM26.7011 54.7229L28.1854 52.4819C28.4586 52.0695 28.5622 51.6679 28.4963 51.2773C28.4278 50.8736 28.2029 50.5456 27.8216 50.293C27.4403 50.0405 27.0505 49.9614 26.6522 50.0558C26.2589 50.1424 25.9258 50.3919 25.6526 50.8043L24.1683 53.0454L26.7011 54.7229ZM22.7793 52.1254L24.2095 49.9661C24.426 49.6393 24.5053 49.3167 24.4474 48.9985C24.3817 48.6751 24.1971 48.413 23.8936 48.212C23.5901 48.011 23.2845 47.9485 22.9767 48.0244C22.6689 48.1004 22.4067 48.3018 22.1903 48.6287L20.7601 50.788L22.7793 52.1254Z" fill="#737373"/>
<path d="M35.0214 46.4694C34.5316 47.0575 33.9706 47.5195 33.3385 47.8554C32.7064 48.1914 32.0456 48.3941 31.3561 48.4636C30.6666 48.533 29.9813 48.4663 29.3001 48.2633C28.6177 48.0471 27.9824 47.6941 27.3944 47.2043C26.7992 46.7085 26.3372 46.1476 26.0084 45.5214C25.6796 44.8953 25.4871 44.2369 25.4308 43.5462C25.3744 42.8555 25.4579 42.172 25.6812 41.4955C25.8974 40.8131 26.2534 40.1743 26.7491 39.5791C27.2449 38.9839 27.8089 38.5183 28.441 38.1823C29.0731 37.8464 29.7338 37.6437 30.4234 37.5742C31.1057 37.4988 31.7845 37.5662 32.4597 37.7763C33.1409 37.9793 33.7791 38.3287 34.3743 38.8245C34.9624 39.3143 35.4214 39.8789 35.7514 40.5181C36.0742 41.1514 36.2637 41.8134 36.3201 42.5041C36.3764 43.1948 36.2965 43.8814 36.0803 44.5638C35.8702 45.239 35.5172 45.8742 35.0214 46.4694ZM33.6875 45.3584C34.016 44.964 34.2496 44.5451 34.3881 44.1017C34.5194 43.6523 34.5612 43.2012 34.5133 42.7483C34.4713 42.2882 34.332 41.8503 34.0953 41.4345C33.8646 41.0115 33.5484 40.6327 33.1468 40.2982C32.7452 39.9637 32.3191 39.7242 31.8686 39.5797C31.4168 39.4221 30.9609 39.3642 30.5008 39.4062C30.0396 39.4349 29.6034 39.5575 29.1924 39.7739C28.7814 39.9903 28.4116 40.2957 28.083 40.6901C27.7605 41.0774 27.5299 41.4927 27.3914 41.9361C27.2529 42.3795 27.2082 42.8342 27.2573 43.3002C27.3052 43.7531 27.4445 44.1911 27.6752 44.6141C27.8988 45.0311 28.2114 45.4068 28.613 45.7413C29.0146 46.0759 29.4442 46.3183 29.9019 46.4688C30.3597 46.6193 30.8156 46.6771 31.2697 46.6424C31.7297 46.6004 32.1689 46.4743 32.5871 46.2639C32.9981 46.0475 33.3649 45.7456 33.6875 45.3584Z" fill="#737373"/>
<path d="M40.6373 40.0629L34.5865 33.7423L32.6347 35.6108L31.4729 34.3972L36.7317 29.3629L37.8934 30.5765L35.972 32.4159L42.0228 38.7365L40.6373 40.0629Z" fill="#737373"/>
<path d="M57.203 26.0595C56.7363 26.3517 56.2462 26.5099 55.7327 26.534C55.2272 26.5531 54.7448 26.4422 54.2856 26.2011C53.8343 25.9551 53.4601 25.5948 53.1629 25.1201C52.8806 24.6692 52.7349 24.1988 52.7256 23.7091C52.7114 23.2115 52.8233 22.7395 53.0615 22.2932C53.2996 21.8468 53.6599 21.4726 54.1425 21.1705C54.6013 20.8832 55.0756 20.735 55.5653 20.7257C56.055 20.7165 56.5206 20.8269 56.962 21.0571C57.4034 21.2873 57.7667 21.6215 58.052 22.0595C58.3491 22.5342 58.5097 23.0283 58.5338 23.5417C58.558 24.0552 58.4549 24.5326 58.2247 24.974C58.0024 25.4104 57.6619 25.7723 57.203 26.0595Z" fill="#90FF74"/>
<path d="M72.736 19.5114L69.479 9.60294L71.2878 9.00837L74.0202 17.3208L78.2628 15.9262L78.7875 17.5222L72.736 19.5114Z" fill="#737373"/>
<path d="M78.8865 17.4004L80.0907 6.43314L82.4938 5.88865L88.3077 15.2657L86.2869 15.7236L85.0683 13.7029L81.1359 14.5939L80.8936 16.9456L78.8865 17.4004ZM81.2972 12.8348L84.1645 12.1851L81.3236 7.50314L81.8425 7.38558L81.2972 12.8348Z" fill="#737373"/>
<path d="M93.2216 14.8402C92.4243 14.9328 91.6957 14.8483 91.0358 14.5867C90.3851 14.324 89.8498 13.9211 89.4296 13.3779C89.0095 12.8348 88.7563 12.1924 88.6702 11.4507L87.8965 4.78947L89.7878 4.5698L90.5502 11.1337C90.5997 11.5601 90.7371 11.9341 90.9624 12.2556C91.1969 12.576 91.4923 12.8142 91.8487 12.9701C92.204 13.1168 92.5949 13.1653 93.0214 13.1158C93.4571 13.0652 93.8264 12.9283 94.1294 12.7052C94.4405 12.4718 94.6689 12.1728 94.8145 11.8082C94.9693 11.4425 95.022 11.0465 94.9724 10.62L94.2101 4.05616L96.1013 3.83649L96.875 10.4977C96.9612 11.2394 96.862 11.9227 96.5776 12.5477C96.2931 13.1727 95.8597 13.6882 95.2773 14.0941C94.7042 14.4989 94.019 14.7476 93.2216 14.8402Z" fill="#737373"/>
<path d="M98.5494 14.1148L98.4287 3.68553L99.9126 3.66834L105.742 11.3294L104.974 11.4923L104.882 3.61079L106.786 3.58874L106.907 14.018L105.409 14.0354L99.6632 6.31741L100.361 6.15531L100.453 14.0928L98.5494 14.1148Z" fill="#737373"/>
<path d="M112.95 14.6978C112.207 14.6231 111.533 14.4193 110.929 14.0865C110.333 13.7546 109.823 13.3234 109.398 12.7928C108.983 12.2632 108.677 11.6603 108.483 10.9841C108.288 10.3079 108.23 9.58441 108.307 8.81363C108.385 8.04285 108.581 7.34505 108.898 6.72021C109.224 6.08703 109.643 5.55698 110.155 5.13007C110.677 4.69481 111.267 4.37893 111.925 4.18243C112.583 3.97664 113.284 3.9111 114.027 3.98583C114.77 4.06055 115.421 4.25271 115.981 4.56229C116.55 4.8728 117.018 5.25756 117.385 5.71655C117.752 6.16625 117.999 6.64607 118.126 7.156L116.347 7.77906C116.204 7.2394 115.918 6.77906 115.487 6.39805C115.057 6.00774 114.513 5.77943 113.853 5.71311C113.203 5.64773 112.612 5.74304 112.08 5.99906C111.557 6.25601 111.129 6.63978 110.796 7.15037C110.473 7.6619 110.274 8.27983 110.202 9.00418C110.129 9.72852 110.199 10.3782 110.414 10.9532C110.638 11.5198 110.981 11.9811 111.442 12.3371C111.913 12.694 112.473 12.9051 113.123 12.9705C113.783 13.0368 114.361 12.9262 114.859 12.6386C115.358 12.3417 115.731 11.943 115.979 11.4426L117.598 12.4075C117.372 12.8819 117.034 13.3076 116.583 13.6843C116.134 14.0518 115.599 14.3311 114.979 14.522C114.369 14.7139 113.692 14.7725 112.95 14.6978Z" fill="#737373"/>
<path d="M118.505 15.1731L120.693 4.97522L122.555 5.3747L121.6 9.82343L125.94 10.7546L126.894 6.30585L128.77 6.70827L126.581 16.9061L124.706 16.5037L125.587 12.3972L121.248 11.466L120.367 15.5726L118.505 15.1731Z" fill="#737373"/>
<path d="M128.157 17.4266L131.113 7.42427L132.939 7.96392L129.983 17.9662L128.157 17.4266Z" fill="#737373"/>
<path d="M131.177 18.2378L134.841 8.47257L136.231 8.99391L138.89 18.2458L138.115 18.1195L140.884 10.7399L142.666 11.4088L139.002 21.174L137.6 20.6477L135.039 11.3729L135.748 11.4746L132.96 18.9067L131.177 18.2378Z" fill="#737373"/>
<path d="M144.719 24.164C144.056 23.8204 143.505 23.3824 143.066 22.8501C142.627 22.3177 142.308 21.7265 142.109 21.0766C141.91 20.4266 141.84 19.7494 141.901 19.0448C141.969 18.3445 142.182 17.6504 142.538 16.9627C142.895 16.2749 143.335 15.699 143.86 15.2349C144.397 14.7669 144.982 14.4289 145.615 14.2211C146.261 14.0092 146.926 13.9334 147.61 13.9934C148.298 14.0452 148.973 14.2429 149.636 14.5865C150.299 14.9301 150.833 15.3491 151.239 15.8434C151.654 16.342 151.947 16.8723 152.118 17.4341C152.294 17.9877 152.346 18.5249 152.276 19.0457L150.398 18.987C150.474 18.4162 150.381 17.8743 150.122 17.3612C149.862 16.8482 149.434 16.437 148.837 16.1277C148.257 15.8271 147.672 15.6975 147.083 15.739C146.502 15.7848 145.963 15.9836 145.465 16.3353C144.976 16.6914 144.564 17.1926 144.229 17.8389C143.894 18.4852 143.724 19.1173 143.719 19.735C143.727 20.3488 143.883 20.9083 144.189 21.4137C144.495 21.9191 144.938 22.3221 145.518 22.6228C145.99 22.8676 146.472 23.002 146.965 23.0258C147.461 23.0414 147.918 22.9416 148.334 22.7265C148.755 22.503 149.087 22.1551 149.332 21.6828L149.699 20.9743L150.122 22.0449L146.692 20.2667L147.433 18.8374L151.783 21.0923L151.3 22.0245C150.93 22.7372 150.484 23.3046 149.96 23.727C149.436 24.1493 148.87 24.4395 148.263 24.5977C147.668 24.7518 147.064 24.791 146.452 24.7153C145.843 24.6313 145.266 24.4475 144.719 24.164Z" fill="#737373"/>
<path d="M153.532 29.1749L159.45 20.5861L161.018 21.6664L155.1 30.2552L153.532 29.1749Z" fill="#737373"/>
<path d="M156.482 31.132L163.011 22.9978L164.168 23.9266L163.808 33.5464L163.111 33.1845L168.044 27.0374L169.529 28.2292L163.001 36.3634L161.832 35.4258L162.294 25.815L162.936 26.133L157.967 32.3238L156.482 31.132Z" fill="#737373"/>
<path d="M166.15 39.3181L167.195 38.3247L171.285 38.3397C172.097 38.3405 172.731 38.3302 173.187 38.3088C173.656 38.2878 174.024 38.2344 174.29 38.1487C174.556 38.0631 174.784 37.9302 174.974 37.7502C175.292 37.448 175.446 37.1086 175.435 36.7321C175.432 36.3623 175.282 36.0218 174.986 35.7106C174.677 35.3858 174.316 35.1951 173.901 35.1383C173.494 35.0751 173.059 35.1598 172.598 35.3923L171.825 33.8279C172.302 33.5297 172.804 33.3675 173.333 33.3414C173.869 33.3088 174.385 33.3978 174.881 33.6085C175.391 33.8195 175.838 34.128 176.224 34.5339C176.687 35.021 177.004 35.5308 177.175 36.0633C177.353 36.6026 177.379 37.1248 177.254 37.63C177.136 38.1419 176.863 38.6004 176.437 39.0055C176.166 39.2627 175.851 39.4659 175.491 39.6152C175.13 39.7644 174.715 39.8694 174.245 39.9301C173.781 39.9843 173.226 40.0098 172.579 40.0065L169.024 40.0052L172.139 43.283L170.972 44.3922L166.15 39.3181Z" fill="#737373"/>
<path d="M173.913 48.2821C173.4 47.6286 173.127 46.9176 173.093 46.1491C173.06 45.3806 173.253 44.6062 173.672 43.8259C174.098 43.0529 174.733 42.3351 175.577 41.6725C176.429 41.0041 177.277 40.558 178.122 40.3341C178.967 40.1103 179.758 40.106 180.497 40.3214C181.235 40.5367 181.861 40.9712 182.374 41.6246C182.898 42.2928 183.174 43.0075 183.202 43.7686C183.236 44.5371 183.042 45.3116 182.623 46.0919C182.21 46.8664 181.582 47.585 180.737 48.2476C179.893 48.9102 179.042 49.3527 178.184 49.575C177.339 49.7988 176.544 49.806 175.798 49.5964C175.06 49.381 174.431 48.9429 173.913 48.2821ZM175.287 47.2214C175.581 47.5958 175.945 47.8259 176.381 47.9116C176.823 47.9916 177.312 47.9342 177.847 47.7395C178.396 47.5464 178.967 47.2165 179.562 46.7498C180.157 46.283 180.609 45.8092 180.92 45.3281C181.244 44.8487 181.413 44.3838 181.427 43.9335C181.447 43.4905 181.308 43.0782 181.008 42.6964C180.72 42.3292 180.358 42.1028 179.923 42.0171C179.488 41.9314 178.996 41.9851 178.448 42.1782C177.913 42.3729 177.348 42.7036 176.753 43.1703C176.166 43.6313 175.71 44.1015 175.386 44.581C175.076 45.062 174.907 45.5269 174.879 45.9756C174.857 46.4317 174.993 46.8469 175.287 47.2214Z" fill="#737373"/>
<path d="M177.244 52.3746L178.457 51.5961L182.471 52.3816C183.268 52.5355 183.893 52.6449 184.345 52.7098C184.809 52.7776 185.181 52.7945 185.458 52.7606C185.736 52.7266 185.985 52.6391 186.205 52.498C186.574 52.2612 186.789 51.9569 186.85 51.5852C186.916 51.2213 186.833 50.8587 186.601 50.4973C186.359 50.1202 186.04 49.8647 185.644 49.7308C185.255 49.5919 184.813 49.5932 184.316 49.7345L183.852 48.0526C184.376 47.8495 184.9 47.785 185.424 47.859C185.957 47.9279 186.447 48.1127 186.894 48.4131C187.355 48.7164 187.736 49.1037 188.039 49.5751C188.402 50.1407 188.617 50.7012 188.685 51.2564C188.758 51.8195 188.685 52.3373 188.467 52.8099C188.254 53.2903 187.9 53.6892 187.405 54.0066C187.091 54.2082 186.743 54.3483 186.361 54.427C185.979 54.5057 185.551 54.5305 185.078 54.5014C184.612 54.4673 184.062 54.3877 183.428 54.2626L179.937 53.5911L182.378 57.3974L181.023 58.2667L177.244 52.3746Z" fill="#737373"/>
<path d="M182.822 61.9852C182.565 61.4982 182.41 60.9839 182.356 60.4424C182.307 59.909 182.362 59.3943 182.522 58.8981C182.695 58.4059 182.982 57.98 183.384 57.6204L184.675 58.807C184.328 59.1695 184.134 59.562 184.093 59.9846C184.061 60.4028 184.145 60.8018 184.345 61.1815C184.51 61.4951 184.722 61.7368 184.981 61.9065C185.252 62.08 185.542 62.1697 185.851 62.1754C186.168 62.1768 186.488 62.0925 186.81 61.9226C187.132 61.7527 187.375 61.5345 187.541 61.2678C187.71 61.0094 187.798 60.7257 187.804 60.4166C187.818 60.1032 187.742 59.7896 187.576 59.4759C187.407 59.154 187.182 58.898 186.902 58.708C186.627 58.5261 186.326 58.4471 186.001 58.471L185.585 56.9333L191.097 54.9585L193.75 59.9853L192.326 60.7368L190.026 56.3785L191.09 56.6245L186.952 58.1432L187.094 57.4512C187.554 57.5038 187.95 57.6537 188.281 57.9011C188.616 58.1568 188.91 58.524 189.163 59.0027C189.485 59.6135 189.632 60.2115 189.603 60.7966C189.579 61.39 189.405 61.9303 189.081 62.4176C188.758 62.9048 188.299 63.3052 187.705 63.6189C187.111 63.9326 186.498 64.0713 185.867 64.035C185.236 63.9988 184.653 63.805 184.119 63.4535C183.586 63.102 183.153 62.6126 182.822 61.9852Z" fill="#737373"/>
<path d="M190.954 79.7767C190.8 79.248 190.782 78.7334 190.898 78.2328C191.017 77.7411 191.255 77.3072 191.612 76.9309C191.972 76.5636 192.421 76.3016 192.958 76.1449C193.469 75.9961 193.961 75.9839 194.435 76.1083C194.918 76.2301 195.341 76.4663 195.706 76.817C196.071 77.1676 196.333 77.6162 196.492 78.1628C196.643 78.6825 196.657 79.1792 196.533 79.653C196.408 80.1267 196.175 80.5446 195.833 80.9067C195.492 81.2687 195.071 81.5274 194.572 81.6826C194.034 81.8393 193.515 81.8593 193.015 81.7427C192.514 81.6261 192.083 81.397 191.721 81.0553C191.361 80.7226 191.106 80.2964 190.954 79.7767Z" fill="#90FF74"/>
</svg>
