<svg width="32" height="32" viewBox="0 0 32 32" fill="none" xmlns="http://www.w3.org/2000/svg">
<rect width="32" height="32" rx="16" fill="#90FF74"/>
<path d="M11.4378 13.4654L15.467 10.3068C16.6136 9.40799 17.1869 8.95859 17.5793 9.003C17.919 9.04144 18.218 9.25899 18.3752 9.58218C18.5569 9.95557 18.3727 10.6881 18.0043 12.1532L17.6956 13.3808C17.5481 13.9673 17.4744 14.2606 17.5251 14.5152C17.5698 14.7392 17.6799 14.9423 17.8396 15.0955C18.0211 15.2697 18.2963 15.3483 18.8468 15.5054L19.2039 15.6074C20.2624 15.9097 20.7917 16.0608 21.0032 16.3684C21.1872 16.6359 21.2462 16.9784 21.1633 17.2981C21.068 17.6657 20.6236 18.0072 19.7347 18.6902L15.7785 21.7302C14.639 22.6058 14.0693 23.0436 13.6787 22.9966C13.3406 22.9559 13.044 22.7378 12.8883 22.4154C12.7084 22.0431 12.8902 21.3201 13.2538 19.8741L13.5297 18.7766C13.6772 18.1901 13.751 17.8968 13.7002 17.6422C13.6555 17.4182 13.5454 17.2151 13.3858 17.0619C13.2042 16.8877 12.929 16.8091 12.3786 16.6519L11.9812 16.5385C10.9338 16.2394 10.4101 16.0899 10.1986 15.7843C10.0147 15.5185 9.95452 15.1779 10.035 14.8591C10.1276 14.4924 10.5644 14.1501 11.4378 13.4654Z" stroke="black" stroke-width="1.5" stroke-linecap="round" stroke-linejoin="round"/>
</svg>
