<svg width="157" height="16" viewBox="0 0 157 16" fill="none" xmlns="http://www.w3.org/2000/svg">
<path d="M0 0.0458453C0.197484 0.819628 0.59969 1.52595 1.16437 2.09064C1.72906 2.65532 2.43539 3.05753 3.20917 3.25501H8.25215L8.48137 3.30086V15.9542H11.5989V3.3467L11.9198 3.20917H16.9627C17.7344 3.00726 18.4383 2.60358 19.0023 2.03958C19.5663 1.47559 19.97 0.771626 20.1719 0L0 0V0.0458453ZM109.387 0.0458453H106.269V16H120.573C121.251 15.7438 121.856 15.3258 122.335 14.7825C122.815 14.2392 123.154 13.5869 123.324 12.8825H109.433V0L109.387 0.0458453ZM85.4097 3.16332C87.0602 2.70487 88.4355 1.4212 88.8023 0L71.3352 0.0458453V9.48997H85.5931V12.7908H74.4069C73.5528 13.013 72.7556 13.414 72.068 13.9672C71.3805 14.5204 70.8182 15.2133 70.4183 16H88.7106V6.37249H74.4069V3.16332H85.4097ZM138.682 16H141.754V9.58166H153.032V16H156.103V6.37249H138.682V16ZM39.106 3.20917H51.0258C51.8102 3.02362 52.5286 2.62621 53.1026 2.06029C53.6766 1.49438 54.0841 0.7817 54.2808 0L35.8968 0C36.0898 0.775978 36.4905 1.48474 37.0559 2.05014C37.6213 2.61555 38.33 3.01623 39.106 3.20917ZM39.106 9.53582H51.0258C51.8102 9.35026 52.5286 8.95285 53.1026 8.38694C53.6766 7.82103 54.0841 7.10835 54.2808 6.32665H35.8968C36.0898 7.10263 36.4905 7.81138 37.0559 8.37679C37.6213 8.94219 38.33 9.34288 39.106 9.53582ZM39.106 16H51.0258C51.8102 15.8144 52.5286 15.417 53.1026 14.8511C53.6766 14.2852 54.0841 13.5725 54.2808 12.7908H35.8968C36.0898 13.5668 36.4905 14.2756 37.0559 14.841C37.6213 15.4064 38.33 15.8071 39.106 16ZM141.433 3.20917H153.352C154.128 3.01623 154.837 2.61555 155.403 2.05014C155.968 1.48474 156.369 0.775978 156.562 0L138.223 0C138.416 0.775978 138.817 1.48474 139.383 2.05014C139.948 2.61555 140.657 3.01623 141.433 3.20917Z" fill="#F5F5F5"/>
</svg>
