<svg width="541" height="189" viewBox="0 0 541 189" fill="none" xmlns="http://www.w3.org/2000/svg">
<path d="M223.847 188.993H303.999L317.153 168.095V142.889H313.307L317.153 136.773V111.591H223.854V188.993H223.847ZM238.692 126.404H302.299V132.525L295.783 142.896H238.692V126.404ZM238.692 157.702H302.299V163.838L295.783 174.196H238.685V157.702H238.692ZM111.857 188.993H205.289V111.591H111.857V188.993ZM126.702 126.404H190.444V174.196H126.702V126.404ZM335.711 188.993H429.143V111.591H335.711V188.993ZM350.556 126.404H414.298V174.196H350.556V126.404ZM447.693 111.598V126.402H486.924V189H501.769V126.402H541V111.596L447.693 111.598ZM93.2985 77.4021V0H78.4536V62.5976H54.0692V0H39.2225V62.5976H14.8467V0H0V77.4021H93.2985ZM205.164 62.5959H126.71V46.1024H205.164V31.298H126.71V14.8062H205.164V0H111.864V77.4021H205.164V62.5959ZM248.401 62.5959H233.556V78.2245H223.721V93.0289H248.401V62.5959ZM93.2985 136.78V111.598H0V189H14.8467V157.722H70.5919L80.4275 189H95.9864L84.1546 151.358L93.3071 136.782L93.2985 136.78ZM78.4536 132.523L71.9359 142.91H14.8467V126.401H78.4536V132.523Z" fill="#90FF74"/>
</svg>
